<svg xmlns="http://www.w3.org/2000/svg" xmlns:xlink="http://www.w3.org/1999/xlink" viewBox="0 0 270 209.05"><defs><style>.cls-1,.cls-29,.cls-30,.cls-32,.cls-5,.cls-6{fill:none;}.cls-2{isolation:isolate;}.cls-3{clip-path:url(#clip-path);}.cls-4{fill:#83f0ff;opacity:0.31;}.cls-11,.cls-15,.cls-18,.cls-19,.cls-20,.cls-22,.cls-23,.cls-25,.cls-26,.cls-27,.cls-28,.cls-31,.cls-4,.cls-8{mix-blend-mode:multiply;}.cls-5,.cls-6{stroke:#1a95fe;}.cls-29,.cls-30,.cls-32,.cls-5,.cls-6{stroke-miterlimit:10;}.cls-5{stroke-width:0.5px;stroke-dasharray:3.52 5.03;}.cls-6{stroke-width:0.42px;stroke-dasharray:2.92 4.18;}.cls-7,.cls-8{fill:#153f59;}.cls-20,.cls-8{opacity:0.41;}.cls-9{fill:#d4e6ff;}.cls-10{fill:#84bff2;}.cls-11,.cls-13,.cls-15{fill:#afbedf;}.cls-11{opacity:0.56;}.cls-12,.cls-31{fill:#72b1eb;}.cls-14{fill:#2aa7b5;}.cls-15{opacity:0.61;}.cls-16{fill:#33c7ca;}.cls-17,.cls-18,.cls-19{fill:#ffc000;}.cls-19{opacity:0.78;}.cls-20{fill:#282f81;}.cls-21,.cls-26{fill:#1a94ff;}.cls-22,.cls-23{fill:#4bd9ff;}.cls-22{opacity:0.52;}.cls-23{opacity:0.76;}.cls-24,.cls-25,.cls-27{fill:#ebd7b7;}.cls-25{opacity:0.39;}.cls-26,.cls-31{opacity:0.17;}.cls-27{opacity:0.23;}.cls-28{fill:#596670;opacity:0.11;}.cls-29,.cls-30{stroke:#fff;}.cls-29{stroke-width:0.07px;}.cls-30{stroke-width:0.07px;}.cls-32{stroke:#72b1eb;stroke-width:1.49px;}</style><clipPath id="clip-path"><rect class="cls-1" x="-520" width="500" height="265.39"/></clipPath></defs><title>personal_landing_Page</title><g class="cls-2"><g id="OBJECTS"><g class="cls-3"><path class="cls-4" d="M18.8,123.43C7.7,104.75-.84,77.66-26.3,72.66c-29.43-5.79-61.75,0-89.44,38.9C-134.53,138-164.4,152-197.5,160.32c-28.32,7.17-52.93,14.7-69.49,39.29a78,78,0,0,0-6.95,74.1c4.86,11.13,12.63,21.48,23.59,27.92,12.1,7.11,27,8.89,41.31,9q88.75.6,177.63,1.32c74-.59,73.39-102.18,64.56-148.85C30.51,149.1,25.91,135.41,18.8,123.43Z"/></g><path class="cls-4" d="M267.39,197.18c0,3.32-58.55,6-130.78,6s-130.78-2.69-130.78-6,58.55-6,130.78-6S267.39,193.87,267.39,197.18Z"/><path class="cls-5" d="M229.26,49.15C220.65,34.94,207.45,24,188.09,20.42c-22.38-4.12-46.67,4.6-61,21.06C110.88,60.12,90.63,73,65.62,79.73c-21.41,5.79-40,11.82-52.3,30.85a60.38,60.38,0,0,0-4.48,56.88c3.8,8.47,9.8,16.33,18.18,21.14,9.25,5.33,20.55,6.53,31.42,6.45q67.34-.5,134.73-.88c56.13-1.24,54.58-79.11,47.4-114.79A94.53,94.53,0,0,0,229.26,49.15Z"/><path class="cls-6" d="M261.61,81.67c-4.79-12.94-13.83-24-29.06-29.91-17.6-6.89-38.79-3.6-53.05,7.57a100.9,100.9,0,0,1-56.18,21.52C105,82.21,88.84,84.2,75.81,97.78A50.16,50.16,0,0,0,63.2,143.47C65,151,68.63,158.33,74.7,163.58c6.71,5.79,15.74,8.55,24.62,10.2q55,10.2,110,20.49c46,7.83,57-55.93,56.73-86.16A78.31,78.31,0,0,0,261.61,81.67Z"/><path class="cls-7" d="M155.14,46.39s3.37-23.6-14.14-25.25c-7-.66-18.18,1.38-18.74,18.29-.53,15.79,1.65,18.66-.72,24.19-1.91,4.45-1.49,21.83,15.7,22.44,13.56.49,18.75-9.68,18.91-15.66S153.63,58.09,155.14,46.39Z"/><path class="cls-8" d="M134.61,45.17l-11.22-.58a46.59,46.59,0,0,1,2.71,19.19c-.94,10.07,6.7,14,6.7,14L140,62.73Z"/><path class="cls-9" d="M26.82,193.48h216.4l-.41-.85a35.17,35.17,0,0,1,0-29.65l.41-.85H26.82Z"/><path class="cls-10" d="M27.39,196.58H244.86c.74,0,1.33-.87,1.33-1.93h0c0-1.07-.59-1.94-1.33-1.94H27.39c-1,0-1.65,1.55-1.18,2.83h0A1.36,1.36,0,0,0,27.39,196.58Z"/><path class="cls-10" d="M26.21,165.76H244.86c.74,0,1.33-.85,1.33-1.89h0c0-1.05-.59-1.89-1.33-1.89H26.21c-.6,0-1.13.58-1.29,1.41h0C24.7,164.59,25.34,165.76,26.21,165.76Z"/><path class="cls-11" d="M26.82,165.66v3.78H240.54a35.77,35.77,0,0,1,1.15-3.78Z"/><path class="cls-12" d="M25.18,196.36H183.54l-.19-.83a82.71,82.71,0,0,1,0-32.58l.19-.82H25.18L24.06,167c-2,8.55-1.66,20.51.94,28.83Z"/><path class="cls-10" d="M183.35,163l.19-.82h-2.61l-.18.82a82.34,82.34,0,0,0,0,32.58l.18.83h2.61l-.19-.83A82.71,82.71,0,0,1,183.35,163Z"/><path class="cls-13" d="M232.16,159.05H31.55l.36-.77a31.47,31.47,0,0,0,0-26.69l-.36-.77H232.16Z"/><path class="cls-14" d="M232.37,161.92h-202a1.43,1.43,0,0,1-1.44-1.44h0a1.43,1.43,0,0,1,1.44-1.43H233.61Z"/><path class="cls-15" d="M232.16,133.05H32.62c.31.78.57,1.56.81,2.36H232.16Z"/><path class="cls-14" d="M234.23,133H30.1a1.18,1.18,0,0,1-1.18-1.18h0a1.17,1.17,0,0,1,1.18-1.17H233.61Z"/><path class="cls-16" d="M234.07,161.92h-118a.6.6,0,0,1-.55-.72h0c2.5-7.77,3.89-19.07,0-29.66h0a.6.6,0,0,1,.55-.72h118s9.84,13.2.13,30.52Z"/><path class="cls-14" d="M118.45,161.2c2.5-7.77,3.89-19.07,0-29.66a.6.6,0,0,1,.55-.72h-2.93a.6.6,0,0,0-.55.72c3.89,10.59,2.5,21.89,0,29.66a.6.6,0,0,0,.55.72H119A.6.6,0,0,1,118.45,161.2Z"/><polygon class="cls-15" points="61.95 144.94 79.11 144.94 80.34 184.56 71.15 176.32 61.95 184.56 61.95 144.94"/><polygon class="cls-17" points="60.72 144.94 79.11 144.94 79.11 184.56 69.91 176.32 60.72 184.56 60.72 144.94"/><rect class="cls-18" x="60.72" y="144.94" width="18.39" height="0.81"/><path class="cls-17" d="M123.26,62.29l.42-.3c6.09-4.07,32.79-4.64,33.26,6.72.3,7.45-1.34,14.32-1.15,21.79.2,7.65.2,24.91.2,24.91l-36.29-1.57s.39-37.39.39-37.46c0-1.73-1.77-3.49-1.62-5.52A12.44,12.44,0,0,1,123.26,62.29Z"/><path class="cls-17" d="M146.38,66.38l4.84-4.72s4.37.6,10.65,12.37,8,16.67,9,25.5c0,0-.39,4.9-4.7,2s-14.91-19.42-14.91-19.42Z"/><path class="cls-19" d="M154.42,75.6l1.36,13.17L161.87,97s-.2-.59,1.37-1Z"/><path class="cls-17" d="M162.65,94.82S153,107.17,150.1,115.61c-3,8.72.79,6.47,7.06,2s15.89-14.12,13.35-21C167.86,89.4,162.65,94.82,162.65,94.82Z"/><path class="cls-17" d="M128.76,66.38l-4.85-4.72s-4.37.6-10.65,12.37-8,16.67-9,25.5c0,0,.39,4.9,4.71,2S125,81.28,125,81.28Z"/><path class="cls-19" d="M121.27,75.6l-1.36,13.17L113.82,97s.19-.59-1.38-1Z"/><path class="cls-17" d="M112.48,94.82s9.61,12.35,12.55,20.79c3,8.72-.78,6.47-7.06,2s-15.89-14.12-13.34-21C107.28,89.4,112.48,94.82,112.48,94.82Z"/><rect class="cls-7" x="113.62" y="90.97" width="47.46" height="30.01" rx="3.62" ry="3.62"/><path class="cls-20" d="M148.25,113.52A26,26,0,0,1,122.48,91h-5.23a3.62,3.62,0,0,0-3.63,3.62v22.76a3.62,3.62,0,0,0,3.63,3.62h40.21a3.63,3.63,0,0,0,3.63-3.62v-3.83Z"/><path class="cls-21" d="M158.63,115.79a4.49,4.49,0,0,0-1.95.83c-7.64,5.12-15.92,4.44-33.64-.83-23-6.82,12.62,10.64,12.62,10.64l14.68,4.5"/><path class="cls-22" d="M158.63,115.79a7.4,7.4,0,0,0-1.95.83c-10.3,5.85-15.92,4.44-33.64-.83-23-6.82,12.62,10.64,12.62,10.64l14.68,4.5"/><path class="cls-23" d="M158.63,115.79a7.4,7.4,0,0,0-1.95.83c-10.3,5.85-15.92,4.44-33.64-.83-23-6.82,12.62,10.64,12.62,10.64l14.68,4.5"/><path class="cls-24" d="M156.59,131.2s4.33,1,8,1.5,11.16,2.08,10.71,7.31-8.2,3.06-13,.78-9.57-4.42-9.57-4.42Z"/><path class="cls-25" d="M173.36,135.77a4.83,4.83,0,0,1,.11,1.54c-.46,5.24-8.2,3.06-13,.78-2.46-1.17-4.91-2.3-6.71-3.12l-1.06,1.4s4.79,2.15,9.57,4.42,12.52,4.46,13-.78A4.78,4.78,0,0,0,173.36,135.77Z"/><path class="cls-21" d="M159.88,131.23s-13.36-5.89-19.75-10.58-22.2-17-35.21-14c-14.44,3.35-8,17,1.46,21.35,8.1,3.76,25.89,4.64,34.18,6.69s15.17,4.07,15.17,4.07Z"/><path class="cls-26" d="M159.88,131.23s-13.36-5.89-19.75-10.58-22.2-17-35.21-14c-14.44,3.35-8,17,1.46,21.35,8.1,3.76,25.89,4.64,34.18,6.69s15.17,4.07,15.17,4.07Z"/><path class="cls-23" d="M147,125.09l-1.48-1a24.5,24.5,0,0,0-5.26,10.49l3.2,1.08Z"/><polygon class="cls-24" points="132.8 52.37 132.8 63.84 138.96 68.52 144.7 62.78 144.7 52.37 132.8 52.37"/><path class="cls-24" d="M152.34,39.43c0,9.08-6.2,18.66-13.83,18.66s-13.83-9.58-13.83-18.66,6.19-14.22,13.83-14.22S152.34,30.35,152.34,39.43Z"/><path class="cls-27" d="M138.51,56.07c-7.35,0-13.36-8.87-13.81-17.63,0,.33,0,.65,0,1,0,9.08,6.19,18.66,13.83,18.66s13.83-9.58,13.83-18.66c0-.34,0-.66,0-1C151.86,47.2,145.85,56.07,138.51,56.07Z"/><path class="cls-24" d="M150,40.13c0-2.62,4.24-4,4.44-1.61.4,4.84-1.41,8.27-3.83,5.85"/><path class="cls-24" d="M126.66,40.13c0-2.62-4.23-4-4.44-1.61-.4,4.84,1.42,8.27,3.84,5.85"/><path class="cls-24" d="M133.93,159.13s-2.84,3.43-5.48,6-7.69,8.35-4.19,12.27,8.39-2.47,10.86-7.16,5-9.27,5-9.27Z"/><path class="cls-25" d="M134.73,167.6c-2.47,4.68-7.36,11.07-10.86,7.15a4.58,4.58,0,0,1-.77-1.14,4.63,4.63,0,0,0,1.16,3.77c3.5,3.92,8.39-2.47,10.86-7.16s5-9.27,5-9.27l-1.59-.46C137.57,162.26,136.14,164.91,134.73,167.6Z"/><path class="cls-21" d="M131.32,161.13s7.17-12.73,9.46-20.3,7.58-26.94,19.8-32.32c13.57-6,16.59,8.78,11.63,18-4.23,7.86-18,19.23-23.36,25.84s-9.7,12.34-9.7,12.34Z"/><path class="cls-17" d="M132.34,60.72s4.7,4.51,12.35.39c2.25-1.2.59,9.81.59,9.81l-8.43,5.69-8.77-5.73Z"/><path class="cls-7" d="M148.86,26.38c-4-5.2-17.59-2.71-17.59-2.71s-7.92,5.85-5.87,15.27h3.86l.62-2.8.93,2.8H132l.63-5.69.93,5.69h13.9l.38-5.85L149,38.94h2.49S152.8,31.58,148.86,26.38Z"/><path class="cls-7" d="M154,46.39l-8.6,10.76s-1.66,2.5.07,8.87c1.3,4.76,6.51,9.9,3.58,18,0,0,8.89-11.3,6.35-21.37C152.81,52.37,154,46.39,154,46.39Z"/><rect class="cls-16" x="123.39" y="34.2" width="1.67" height="13.32" rx="0.78" ry="0.78"/><path class="cls-16" d="M123.18,35.5h.22a0,0,0,0,1,0,0V46a0,0,0,0,1,0,0h-.22a2.88,2.88,0,0,1-2.88-2.88V38.38A2.88,2.88,0,0,1,123.18,35.5Z"/><rect class="cls-16" x="151.72" y="34.2" width="1.63" height="13.32" rx="0.77" ry="0.77" transform="translate(305.07 81.73) rotate(180)"/><path class="cls-16" d="M156.2,35.5h.18a0,0,0,0,1,0,0V46a0,0,0,0,1,0,0h-.18a2.85,2.85,0,0,1-2.85-2.85V38.34A2.85,2.85,0,0,1,156.2,35.5Z" transform="translate(309.72 81.53) rotate(180)"/><path class="cls-16" d="M122.83,40.77H121.5V37.71c0-9.94,7.55-18,16.83-18s16.83,8.09,16.83,18v.64h-1.33v-.64c0-9.21-7-16.7-15.5-16.7s-15.5,7.49-15.5,16.7Z"/><rect class="cls-28" x="172.66" y="20.8" width="23.7" height="34.34" rx="2.14" ry="2.14"/><rect class="cls-24" x="175.5" y="17.72" width="23.7" height="34.34" rx="2.14" ry="2.14"/><line class="cls-29" x1="178.24" y1="23.78" x2="195.92" y2="23.78"/><line class="cls-29" x1="178.24" y1="28.33" x2="195.92" y2="28.33"/><line class="cls-29" x1="178.24" y1="32.89" x2="195.92" y2="32.89"/><line class="cls-29" x1="178.24" y1="37.44" x2="195.92" y2="37.44"/><line class="cls-29" x1="178.24" y1="41.99" x2="195.92" y2="41.99"/><line class="cls-29" x1="178.24" y1="46.55" x2="195.92" y2="46.55"/><path class="cls-28" d="M197.06,17.72H182.88V38.78A2.14,2.14,0,0,0,185,40.92H199.2v-21A2.14,2.14,0,0,0,197.06,17.72Z"/><rect class="cls-17" x="184.37" y="4.82" width="23.7" height="34.34" rx="2.14" ry="2.14"/><line class="cls-29" x1="187.35" y1="10.56" x2="205.03" y2="10.56"/><line class="cls-29" x1="187.35" y1="15.11" x2="205.03" y2="15.11"/><line class="cls-29" x1="187.35" y1="19.67" x2="205.03" y2="19.67"/><line class="cls-29" x1="187.35" y1="24.22" x2="205.03" y2="24.22"/><line class="cls-29" x1="187.35" y1="28.77" x2="205.03" y2="28.77"/><line class="cls-29" x1="187.35" y1="33.33" x2="205.03" y2="33.33"/><rect class="cls-28" x="191.45" y="77.37" width="23.7" height="34.34" rx="2.14" ry="2.14"/><rect class="cls-24" x="193.98" y="74.61" width="23.7" height="34.34" rx="2.14" ry="2.14"/><line class="cls-29" x1="196.73" y1="80.66" x2="214.4" y2="80.66"/><line class="cls-29" x1="196.73" y1="85.22" x2="214.4" y2="85.22"/><line class="cls-29" x1="196.73" y1="89.77" x2="214.4" y2="89.77"/><line class="cls-29" x1="196.73" y1="94.32" x2="214.4" y2="94.32"/><line class="cls-29" x1="196.73" y1="98.88" x2="214.4" y2="98.88"/><line class="cls-29" x1="196.73" y1="103.43" x2="214.4" y2="103.43"/><rect class="cls-28" x="48.2" y="35.27" width="24.27" height="35.16" rx="2.19" ry="2.19"/><rect class="cls-24" x="50.77" y="32.7" width="24.27" height="35.16" rx="2.19" ry="2.19"/><rect class="cls-28" x="76.3" y="47.06" width="24.27" height="35.16" rx="2.19" ry="2.19"/><rect class="cls-9" x="78.29" y="44.79" width="24.27" height="35.16" rx="2.19" ry="2.19"/><line class="cls-30" x1="81.37" y1="50.58" x2="99.47" y2="50.58"/><line class="cls-30" x1="81.37" y1="55.25" x2="99.47" y2="55.25"/><line class="cls-30" x1="81.37" y1="59.91" x2="99.47" y2="59.91"/><line class="cls-30" x1="81.37" y1="64.57" x2="99.47" y2="64.57"/><line class="cls-30" x1="81.37" y1="69.23" x2="99.47" y2="69.23"/><line class="cls-30" x1="81.37" y1="73.9" x2="99.47" y2="73.9"/><line class="cls-30" x1="53.58" y1="38.9" x2="71.68" y2="38.9"/><line class="cls-30" x1="53.58" y1="43.57" x2="71.68" y2="43.57"/><line class="cls-30" x1="53.58" y1="48.23" x2="71.68" y2="48.23"/><line class="cls-30" x1="53.58" y1="52.89" x2="71.68" y2="52.89"/><line class="cls-30" x1="53.58" y1="57.55" x2="71.68" y2="57.55"/><line class="cls-30" x1="53.58" y1="62.22" x2="71.68" y2="62.22"/><path class="cls-28" d="M72.85,32.7H58.33V57.85A2.19,2.19,0,0,0,60.53,60H75V34.9A2.2,2.2,0,0,0,72.85,32.7Z"/><rect class="cls-17" x="59.85" y="23.08" width="24.27" height="35.16" rx="2.19" ry="2.19"/><line class="cls-30" x1="62.91" y1="28.96" x2="81" y2="28.96"/><line class="cls-30" x1="62.91" y1="33.62" x2="81" y2="33.62"/><line class="cls-30" x1="62.91" y1="38.28" x2="81" y2="38.28"/><line class="cls-30" x1="62.91" y1="42.94" x2="81" y2="42.94"/><line class="cls-30" x1="62.91" y1="47.61" x2="81" y2="47.61"/><line class="cls-30" x1="62.91" y1="52.27" x2="81" y2="52.27"/><polygon class="cls-12" points="85.77 130.66 74.74 130.66 73.89 113.45 86.62 113.45 85.77 130.66"/><path class="cls-31" d="M76.18,118.36l-.24-4.91h-2l.85,17.21h11L85.9,128A10.16,10.16,0,0,1,76.18,118.36Z"/><path class="cls-32" d="M85.32,116.23h2.5a2.46,2.46,0,0,1,2.43,2.88l-1.07,6.24a2.46,2.46,0,0,1-2.42,2.05H84.69"/></g></g></svg>