<svg xmlns="http://www.w3.org/2000/svg" xmlns:xlink="http://www.w3.org/1999/xlink" viewBox="0 0 309.23 201.12"><defs><style>.cls-1{fill:#fff;}.cls-2{fill:url(#linear-gradient);}.cls-3{fill:none;}.cls-4{clip-path:url(#clip-path);}.cls-5{clip-path:url(#clip-path-2);}.cls-6{fill:url(#linear-gradient-3);}.cls-7{fill:#ffc000;}.cls-8{clip-path:url(#clip-path-3);}.cls-9{fill:#b7ede0;}.cls-10{fill:#322d74;}.cls-11{fill:#94dec7;}.cls-12{fill:#a9c1ce;}</style><linearGradient id="linear-gradient" x1="-245.94" y1="435.51" x2="-371.94" y2="-346.49" gradientUnits="userSpaceOnUse"><stop offset="0.08" stop-color="#e8e8ea"/><stop offset="0.93" stop-color="#8d909b"/></linearGradient><clipPath id="clip-path"><rect class="cls-1" x="-526.77" y="-5.83" width="500" height="500"/></clipPath><clipPath id="clip-path-2"><rect class="cls-2" x="-526.77" y="-5.83" width="500" height="500"/></clipPath><linearGradient id="linear-gradient-3" x1="-245.36" y1="435.42" x2="-371.35" y2="-346.58" gradientUnits="userSpaceOnUse"><stop offset="0.07" stop-color="#8d909b"/><stop offset="0.92" stop-color="#fff"/></linearGradient><clipPath id="clip-path-3"><rect class="cls-3" x="56.04" y="-50.66" width="196.99" height="309.4" transform="translate(258.57 -50.49) rotate(90)"/></clipPath></defs><title>338518-PB2SM4-374</title><g id="BACKGROUND"><rect class="cls-1" x="-526.77" y="-5.83" width="500" height="500"/><g class="cls-4"><rect class="cls-1" x="-568.77" y="-45.83" width="586" height="585"/></g><rect class="cls-2" x="-526.77" y="-5.83" width="500" height="500"/><g class="cls-5"><rect class="cls-6" x="-568.77" y="-45.83" width="586" height="585"/></g></g><g id="OBJECTS"><rect class="cls-7" x="53.1" y="-53.6" width="202.87" height="309.4" transform="translate(255.63 -53.43) rotate(90)"/><g class="cls-8"><rect class="cls-9" x="67.02" y="65.35" width="274.37" height="274.37" transform="translate(203.03 -85.08) rotate(45)"/><polygon class="cls-10" points="204.21 8.53 309.23 8.53 309.23 113.55 204.21 8.53"/><polygon class="cls-11" points="149.69 -151.01 309.23 -151.01 309.23 8.53 149.69 -151.01"/><polygon class="cls-10" points="140.96 72.32 186.97 25.76 -192.88 25.76 -192.88 72.32 140.96 72.32"/><polygon class="cls-10" points="78.31 72.29 -105.84 72.29 -105.84 256.44 78.31 72.29"/><polygon class="cls-11" points="34.79 72.29 -149.36 72.29 -149.36 256.44 34.79 72.29"/><rect class="cls-1" x="5.65" y="-55.25" width="23.5" height="94" transform="translate(9.16 -25.65) rotate(90)"/><rect class="cls-1" x="92.65" y="93.02" width="92.42" height="92.42" transform="translate(139.12 -57.41) rotate(45)"/><polygon class="cls-12" points="204.21 139.23 138.86 73.88 204.21 8.53 204.21 139.23"/></g></g></svg>